@startuml
class Car{
    - String _id
    - String _model
    - String _brand
    + Car(String id, String model, String brand)
    + String getId()
    + String getModel()
    + String getBrand()
}

class CarManager{
    - DAO _dao
    - CarFormatter _formatter
    - CarRater _rater
    + getBestCar()
    + getCarsNames()
}

class DAO{
    - Car[] _carsDb
    + getFromDb(String carId)
    + getAllCars()
}

class CarRater{
    + String getBestCar(Car[] cars)
}

class CarFormatter{
    + String getCarsNames(Car[] cars)
}

CarManager -> Car
CarManager --> DAO
CarManager --> CarRater
CarManager --> CarFormatter
DAO --> Car
CarRater ..> Car
CarFormatter ..> Car

@enduml